<svg width="248" height="183" viewBox="0 0 248 183" fill="none" xmlns="http://www.w3.org/2000/svg">
<path d="M79.0674 73.0106C78.5357 73.0106 78.0705 72.8312 77.6717 72.4723C77.273 72.1134 77.0204 71.6482 76.9141 71.0766C76.5818 68.8568 76.2295 66.9428 75.8574 65.3345C75.4985 63.7261 75.0665 62.3637 74.5614 61.2472C74.0563 60.1306 73.4316 59.2002 72.6872 58.4559C71.9429 57.6982 71.0191 57.0801 69.9158 56.6016C68.8126 56.1231 67.4768 55.7177 65.9083 55.3854C64.3531 55.0531 62.4989 54.7407 60.3456 54.4483C59.7608 54.3686 59.2822 54.1293 58.9101 53.7306C58.5379 53.3185 58.3518 52.84 58.3518 52.295C58.3518 51.7367 58.5379 51.2582 58.9101 50.8595C59.2955 50.4474 59.7807 50.2015 60.3655 50.1218C62.9442 49.8293 65.1108 49.4904 66.8653 49.1049C68.6332 48.7062 70.0886 48.1678 71.2318 47.49C72.3749 46.7988 73.2987 45.8683 74.0031 44.6986C74.7076 43.5289 75.2792 42.0402 75.7178 40.2325C76.1564 38.4115 76.5552 36.1718 76.9141 33.5134C77.0071 32.9419 77.253 32.4766 77.6518 32.1178C78.0505 31.7589 78.5224 31.5794 79.0674 31.5794C79.6124 31.5794 80.0776 31.7589 80.463 32.1178C80.8618 32.4634 81.1077 32.9219 81.2007 33.4935C81.6128 36.1519 82.0448 38.3849 82.4967 40.1927C82.9486 42.0004 83.5202 43.4824 84.2114 44.6388C84.9159 45.7952 85.833 46.719 86.9628 47.4102C88.1059 48.0881 89.5548 48.6331 91.3093 49.0451C93.0639 49.4439 95.2238 49.8028 97.7892 50.1218C98.3607 50.2015 98.8326 50.4474 99.2048 50.8595C99.5902 51.2582 99.783 51.7367 99.783 52.295C99.783 52.84 99.5902 53.3185 99.2048 53.7306C98.8193 54.1426 98.3474 54.3819 97.7892 54.4483C95.2105 54.7407 93.0373 55.0863 91.2694 55.4851C89.5016 55.8706 88.0461 56.4089 86.903 57.1001C85.7599 57.7913 84.8361 58.7217 84.1316 59.8914C83.4272 61.0478 82.8556 62.5365 82.417 64.3575C81.9783 66.1652 81.5729 68.3983 81.2007 71.0567C81.121 71.6282 80.8817 72.0934 80.483 72.4523C80.0842 72.8245 79.6124 73.0106 79.0674 73.0106Z" fill="#1B49FF"/>
<path d="M162.189 126.159C161.48 126.159 160.86 125.919 160.328 125.441C159.797 124.962 159.46 124.342 159.318 123.58C158.875 120.62 158.405 118.068 157.909 115.924C157.431 113.779 156.855 111.963 156.181 110.474C155.508 108.985 154.675 107.745 153.682 106.752C152.69 105.742 151.458 104.918 149.987 104.28C148.516 103.642 146.735 103.101 144.644 102.658C142.57 102.215 140.098 101.799 137.227 101.409C136.447 101.303 135.809 100.984 135.313 100.452C134.816 99.9025 134.568 99.2645 134.568 98.5379C134.568 97.7935 134.816 97.1555 135.313 96.6238C135.827 96.0744 136.474 95.7465 137.253 95.6402C140.692 95.2503 143.58 94.7984 145.92 94.2844C148.277 93.7527 150.217 93.035 151.742 92.1311C153.266 91.2095 154.497 89.9689 155.437 88.4093C156.376 86.8498 157.138 84.8648 157.723 82.4545C158.308 80.0265 158.84 77.0403 159.318 73.4957C159.442 72.7337 159.77 72.1134 160.302 71.6349C160.833 71.1563 161.462 70.9171 162.189 70.9171C162.916 70.9171 163.536 71.1563 164.05 71.6349C164.582 72.0956 164.91 72.7071 165.034 73.4691C165.583 77.0137 166.159 79.9911 166.762 82.4014C167.364 84.8116 168.126 86.7877 169.048 88.3296C169.987 89.8715 171.21 91.1032 172.716 92.0248C174.241 92.9286 176.172 93.6553 178.512 94.2047C180.851 94.7363 183.731 95.2149 187.151 95.6402C187.914 95.7465 188.543 96.0744 189.039 96.6238C189.553 97.1555 189.81 97.7935 189.81 98.5379C189.81 99.2645 189.553 99.9025 189.039 100.452C188.525 101.001 187.896 101.32 187.151 101.409C183.713 101.799 180.816 102.26 178.459 102.791C176.101 103.305 174.161 104.023 172.637 104.945C171.112 105.866 169.881 107.107 168.941 108.666C168.002 110.208 167.24 112.193 166.655 114.621C166.07 117.031 165.53 120.009 165.034 123.553C164.927 124.315 164.608 124.936 164.077 125.414C163.545 125.91 162.916 126.159 162.189 126.159Z" fill="#1B49FF"/>
<path d="M142.536 29.5864C146.045 28.6605 148.945 28.8311 151.235 30.0981C153.526 31.3652 155.11 33.7415 155.987 37.226L156.937 40.8081C157.425 42.7332 157.242 44.4515 156.389 45.9624C155.536 47.4732 154.099 48.4966 152.076 49.0327L111.941 59.7797H154.708C156.779 59.7797 158.424 60.3886 159.642 61.6069C160.85 62.8144 161.459 64.4171 161.469 66.4145C160.025 66.5506 158.673 67.0979 157.529 68.0366L157.266 68.2622C155.989 69.4116 155.216 70.8756 154.897 72.4506L154.84 72.767L154.83 72.8276L154.822 72.8891C154.357 76.3357 153.849 79.1565 153.313 81.3842C152.801 83.4972 152.183 85.0176 151.55 86.0688C150.985 87.006 150.281 87.7083 149.409 88.2387C148.414 88.8253 146.965 89.3967 144.933 89.8559C142.799 90.3241 140.08 90.7537 136.742 91.1323L136.691 91.1381L136.64 91.145C134.989 91.3702 133.463 92.0791 132.24 93.2778L132 93.5248L131.996 93.5278C130.695 94.9211 130.031 96.6741 130.031 98.5375C130.031 100.411 130.712 102.127 131.946 103.493L131.97 103.521L131.996 103.548L132.237 103.795C133.468 105.001 134.997 105.684 136.613 105.905H136.616C139.411 106.284 141.765 106.683 143.695 107.095L143.703 107.097L144.39 107.249C145.951 107.612 147.203 108.018 148.181 108.443C149.187 108.879 149.913 109.39 150.445 109.932L150.473 109.96C150.837 110.324 151.195 110.783 151.538 111.363C151.202 111.38 150.858 111.392 150.505 111.392H90.4109C86.7558 111.392 84.0021 110.478 82.1501 108.651C80.3226 106.848 79.409 104.155 79.4089 100.573V77.5375C80.9468 77.4608 82.3728 76.8667 83.5173 75.8237L83.5183 75.8247C83.526 75.8178 83.5332 75.8101 83.5408 75.8032C83.5533 75.7917 83.5664 75.7806 83.5789 75.769L83.5779 75.768C84.7949 74.6461 85.482 73.2028 85.6941 71.685V71.686C86.0537 69.1172 86.4343 67.0414 86.8259 65.4272L86.8279 65.4194C87.1952 63.8946 87.621 62.8844 88.0066 62.2514L88.0193 62.2319C88.3522 61.6793 88.753 61.2839 89.2507 60.9829C89.8456 60.6232 90.795 60.2327 92.2361 59.9184L92.2527 59.9145L92.2683 59.9106C93.8232 59.5599 95.8224 59.2375 98.3005 58.9565L98.3132 58.9545L98.3259 58.9536L98.6287 58.9116C100.131 58.6665 101.474 57.9454 102.518 56.8295C103.659 55.6099 104.32 54.0353 104.32 52.2954C104.32 50.6199 103.712 49.0534 102.571 47.8188H102.572C102.554 47.799 102.535 47.7797 102.517 47.7602C102.501 47.7424 102.485 47.7232 102.468 47.7055L102.467 47.7065C101.364 46.5388 99.9497 45.8423 98.4167 45.6284L98.3835 45.6235L98.3494 45.6196L97.4441 45.5024C95.393 45.2285 93.6975 44.9338 92.3367 44.6254C91.2268 44.3641 90.3928 44.0654 89.7791 43.7719L142.536 29.5864ZM93.4822 65.9204L88.2546 75.643H100.281L105.763 65.4819H103.022L93.4822 65.9204ZM111.466 75.643H124.369L129.852 65.4819H116.912L111.466 75.643ZM135.554 75.643H147.544L153.026 65.4819H141.001L135.554 75.643ZM111.612 43.8061L108.98 55.0278L121.445 51.7377L124.077 40.4799L111.612 43.8061ZM145.058 34.85C144.62 34.9475 144.156 35.0573 143.669 35.1791L134.86 37.5922L132.191 48.8139L143.815 45.7065L146.411 34.5581C145.972 34.6555 145.521 34.7526 145.058 34.85Z" fill="white"/>
<path d="M247.162 174.243C247.162 179.064 243.419 181.333 239.619 182.183C236.783 182.807 234.855 182.92 232.076 182.183C231.339 181.503 230.148 180.142 229.24 179.121V181.9H221.301V172.939H229.24C229.24 173.96 229.524 174.697 230.488 175.321C231.622 176.058 233.607 176.228 235.649 176.115C237.18 175.945 239.165 175.321 239.222 174.13C239.222 172.826 237.577 171.975 234.685 171.351C230.772 170.444 228.333 169.82 225.951 168.856C223.342 167.778 221.981 165.793 221.414 164.149C220.734 161.653 220.904 158.421 222.945 156.095C225.384 153.26 228.276 152.693 231.849 152.693C233.38 152.693 234.118 152.92 235.309 153.146C235.876 153.714 237.123 154.848 238.314 155.925V153.543H247.105V162.447H238.314C238.314 160.632 236.216 159.385 233.607 159.328C231.452 159.328 228.957 159.725 228.957 161.37C228.957 163.355 232.7 163.752 234.685 164.149C239.108 164.829 241.263 165.623 243.305 166.757C246.254 168.459 247.162 171.181 247.162 174.243Z" fill="white"/>
<path d="M204.115 182.75C198.614 182.75 193.907 181.162 190.675 176.966C188.86 174.641 187.952 170.898 187.952 167.608V153.543H196.289V157.287C197.083 156.322 197.991 155.245 199.352 153.714C201.053 153.033 202.981 152.75 205.023 152.75C210.978 152.75 214.721 155.415 216.819 159.442C218.52 162.674 218.464 166.02 218.464 169.707H196.459C196.573 172.088 197.877 175.208 203.662 175.208C207.235 175.208 209.673 173.847 209.9 171.748H218.294C218.18 178.724 211.545 182.75 204.115 182.75ZM196.97 163.355H209.106C208.766 161.597 207.008 159.271 203.208 159.271C199.975 159.271 197.82 161.03 196.97 163.355ZM197.31 149.857H207.405L214.721 142.655H204.626L202.981 144.243L197.31 149.857Z" fill="white"/>
<path d="M185.826 174.811V182.75C182.593 182.75 178.397 182.297 176.582 181.333C174.54 180.312 171.478 177.76 171.421 170.784L171.364 150.141H167.735V142.201H179.361V155.925V168.289C179.474 170.614 179.531 171.862 180.382 173.223C181.289 174.697 183.898 174.811 185.826 174.811Z" fill="white"/>
<path d="M161.553 153.543V173.96H166.43V181.9H148.963V173.96H153.613V161.483H148.963V153.543H161.553ZM153.556 145.15C153.556 147.419 155.371 149.233 157.696 149.233C158.831 149.233 159.908 148.836 160.645 148.099C161.383 147.305 161.836 146.228 161.836 145.15C161.836 143.959 161.383 142.938 160.645 142.144C159.908 141.464 158.831 140.953 157.696 140.953C156.619 140.953 155.485 141.464 154.691 142.144C153.953 142.938 153.556 143.959 153.556 145.15Z" fill="white"/>
<path d="M147.228 142.201V150.594H130.271V157.116H142.748V165.51H130.271V181.9H121.878V142.201H147.228Z" fill="white"/>
<path d="M110.62 171.725L116.672 172.349C115.237 178.463 110.496 182.081 103.446 182.081C94.962 182.081 88.8484 176.654 88.8484 167.982C88.8484 159.311 95.0244 153.073 103.259 153.073C112.242 153.073 116.859 159.311 116.859 166.797V169.48H96.2097C96.4592 173.535 99.6408 176.404 103.696 176.404C107.376 176.404 109.56 174.845 110.62 171.725ZM96.3344 164.801H109.56C109.31 161.619 107.376 158.562 103.197 158.562C99.0793 158.562 97.0207 161.37 96.3344 164.801Z" fill="#1B49FF"/>
<path d="M65.4233 166.61V181.333H57.9373V153.821H65.4233V158.313C66.7957 155.194 70.2892 153.073 74.4066 153.073C81.7679 153.073 84.4504 158.063 84.4504 164.177V181.333H76.9643V165.674C76.9643 161.432 75.2799 158.999 71.5993 158.999C67.7939 158.999 65.4233 161.994 65.4233 166.61Z" fill="#1B49FF"/>
<path d="M44.1694 153.821H51.6555V181.333H44.1694V153.821ZM44.0447 149.33V142.031H51.7179V149.33H44.0447Z" fill="#1B49FF"/>
<path d="M1 161.682C1 149.579 9.54658 141.282 20.7133 141.282C32.3167 141.282 38.7422 148.581 39.4284 158.5L31.9424 158.812C31.3809 152.948 27.8874 148.144 20.7133 148.144C13.7263 148.144 9.10989 153.385 9.10989 161.682C9.10989 169.979 13.7263 175.219 20.7133 175.219C27.8874 175.219 31.3809 170.415 31.9424 164.551L39.4284 164.863C38.7422 174.845 32.3167 182.081 20.7133 182.081C9.54658 182.081 1 173.784 1 161.682Z" fill="#1B49FF"/>
</svg>
